<svg fill="none" xmlns="http://www.w3.org/2000/svg" viewBox="0 0 32 32">
  <g clip-path="url(#v6CkccPLd6vqa)" fill="#fff">
    <path d="M6 2H2v4h4V2zm8 0h-4v4h4V2zm8 0h-4v4h4V2zm8 0h-4v4h4V2zM6 10H2v4h4v-4zm8 0h-4v4h4v-4zm8 0h-4v4h4v-4zm8 0h-4v4h4v-4zM6 18H2v4h4v-4zm8 0h-4v4h4v-4zm8 0h-4v4h4v-4zm8 0h-4v4h4v-4zM6 26H2v4h4v-4zm8 0h-4v4h4v-4zm8 0h-4v4h4v-4zm8 0h-4v4h4v-4z"/>
  </g>
  <defs>
    <clipPath id="v6CkccPLd6vqa">
      <path fill="#fff" d="M0 0h32v32H0z"/>
    </clipPath>
  </defs>
</svg>
